<svg xmlns="http://www.w3.org/2000/svg" viewBox="0 0 32 32">
  <circle cx="16" cy="16" r="16" fill="#f7931a"/>
  <path fill="#fff" d="M21.78 15.37c.52-3.46-2.07-5.32-5.59-6.53l1.14-4.57-2.78-.69-1.11 4.47c-.73-.18-1.48-.35-2.22-.52l1.13-4.53-2.78-.69-1.13 4.54c-.6-.14-1.18-.28-1.74-.43l.01-.06-3.82-.95-.74 2.97s2.06.47 2.01.5c1.12.28 1.33.95 1.29 1.5l-1.3 5.22c.07.02.16.05.26.1l-.27-.07-1.82 7.31c-.13.33-.49.83-1.31.62.03.05-2.01-.5-2.01-.5l-1.38 3.19 3.6.9c.65.16 1.29.33 1.92.49l-1.15 4.62 2.78.69 1.14-4.58c.75.2 1.48.38 2.2.55l-1.14 4.58 2.78.69 1.15-4.6c3.96.75 6.94.45 8.19-3.13 1.01-2.88-.04-4.55-2.06-5.63 1.47-.34 2.58-1.31 2.87-3.32zm-5.06 6.6c-1.04 4.19-8.12 1.93-10.42 1.36l1.87-7.5c2.3.57 9.64 1.76 8.55 6.14zm1.03-5.51c-.95 3.8-6.85 1.83-8.75 1.36l1.69-6.81c1.9.48 8.05 1.5 7.06 5.45z"/>
</svg>
